<mxfile host="app.diagrams.net" modified="2020-12-14T03:17:06.215Z" agent="5.0 (Macintosh; Intel Mac OS X 11_0_0) AppleWebKit/537.36 (KHTML, like Gecko) Chrome/86.0.4240.198 Safari/537.36" etag="WqJAvXndHotN5eo1Xcql" version="13.11.0" type="github">
  <diagram id="hUbbBRrvxg3woigQvrr6" name="第 1 页">
    <mxGraphModel dx="1450" dy="589" grid="1" gridSize="10" guides="1" tooltips="1" connect="1" arrows="1" fold="1" page="1" pageScale="1" pageWidth="827" pageHeight="1169" math="0" shadow="0">
      <root>
        <mxCell id="0" />
        <mxCell id="1" parent="0" />
        <mxCell id="DXYHb4oSjjC-J1Q0Xx3f-4" value="" style="edgeStyle=orthogonalEdgeStyle;rounded=0;orthogonalLoop=1;jettySize=auto;html=1;" edge="1" parent="1" source="DXYHb4oSjjC-J1Q0Xx3f-1" target="DXYHb4oSjjC-J1Q0Xx3f-3">
          <mxGeometry relative="1" as="geometry" />
        </mxCell>
        <mxCell id="DXYHb4oSjjC-J1Q0Xx3f-16" value="" style="edgeStyle=orthogonalEdgeStyle;rounded=0;orthogonalLoop=1;jettySize=auto;html=1;" edge="1" parent="1" source="DXYHb4oSjjC-J1Q0Xx3f-1" target="DXYHb4oSjjC-J1Q0Xx3f-15">
          <mxGeometry relative="1" as="geometry" />
        </mxCell>
        <mxCell id="DXYHb4oSjjC-J1Q0Xx3f-1" value="Thread.start()" style="rounded=0;whiteSpace=wrap;html=1;" vertex="1" parent="1">
          <mxGeometry x="130" y="80" width="120" height="60" as="geometry" />
        </mxCell>
        <mxCell id="DXYHb4oSjjC-J1Q0Xx3f-8" value="" style="edgeStyle=orthogonalEdgeStyle;rounded=0;orthogonalLoop=1;jettySize=auto;html=1;" edge="1" parent="1" source="DXYHb4oSjjC-J1Q0Xx3f-2" target="DXYHb4oSjjC-J1Q0Xx3f-7">
          <mxGeometry relative="1" as="geometry" />
        </mxCell>
        <mxCell id="DXYHb4oSjjC-J1Q0Xx3f-2" value="OS 操作系统" style="ellipse;whiteSpace=wrap;html=1;" vertex="1" parent="1">
          <mxGeometry x="470" y="70" width="120" height="80" as="geometry" />
        </mxCell>
        <mxCell id="DXYHb4oSjjC-J1Q0Xx3f-6" value="" style="edgeStyle=orthogonalEdgeStyle;rounded=0;orthogonalLoop=1;jettySize=auto;html=1;" edge="1" parent="1" source="DXYHb4oSjjC-J1Q0Xx3f-3" target="DXYHb4oSjjC-J1Q0Xx3f-5">
          <mxGeometry relative="1" as="geometry" />
        </mxCell>
        <mxCell id="DXYHb4oSjjC-J1Q0Xx3f-3" value="native start0()" style="whiteSpace=wrap;html=1;rounded=0;" vertex="1" parent="1">
          <mxGeometry x="130" y="220" width="120" height="60" as="geometry" />
        </mxCell>
        <mxCell id="DXYHb4oSjjC-J1Q0Xx3f-9" style="edgeStyle=orthogonalEdgeStyle;rounded=0;orthogonalLoop=1;jettySize=auto;html=1;exitX=1;exitY=0.5;exitDx=0;exitDy=0;entryX=0;entryY=0.5;entryDx=0;entryDy=0;" edge="1" parent="1" source="DXYHb4oSjjC-J1Q0Xx3f-5" target="DXYHb4oSjjC-J1Q0Xx3f-7">
          <mxGeometry relative="1" as="geometry" />
        </mxCell>
        <mxCell id="DXYHb4oSjjC-J1Q0Xx3f-14" value="" style="edgeStyle=orthogonalEdgeStyle;rounded=0;orthogonalLoop=1;jettySize=auto;html=1;" edge="1" parent="1" source="DXYHb4oSjjC-J1Q0Xx3f-5" target="DXYHb4oSjjC-J1Q0Xx3f-13">
          <mxGeometry relative="1" as="geometry" />
        </mxCell>
        <mxCell id="DXYHb4oSjjC-J1Q0Xx3f-5" value="JVM 实例化JavaThreadC++对象" style="whiteSpace=wrap;html=1;rounded=0;" vertex="1" parent="1">
          <mxGeometry x="130" y="360" width="120" height="60" as="geometry" />
        </mxCell>
        <mxCell id="DXYHb4oSjjC-J1Q0Xx3f-11" value="" style="edgeStyle=orthogonalEdgeStyle;rounded=0;orthogonalLoop=1;jettySize=auto;html=1;entryX=1;entryY=0.5;entryDx=0;entryDy=0;exitX=0.5;exitY=1;exitDx=0;exitDy=0;" edge="1" parent="1" source="DXYHb4oSjjC-J1Q0Xx3f-7" target="DXYHb4oSjjC-J1Q0Xx3f-13">
          <mxGeometry relative="1" as="geometry">
            <mxPoint x="530" y="380" as="targetPoint" />
            <Array as="points">
              <mxPoint x="530" y="530" />
            </Array>
          </mxGeometry>
        </mxCell>
        <mxCell id="DXYHb4oSjjC-J1Q0Xx3f-12" value="创建线程完毕" style="edgeLabel;html=1;align=center;verticalAlign=middle;resizable=0;points=[];" vertex="1" connectable="0" parent="DXYHb4oSjjC-J1Q0Xx3f-11">
          <mxGeometry x="-0.075" y="-2" relative="1" as="geometry">
            <mxPoint as="offset" />
          </mxGeometry>
        </mxCell>
        <mxCell id="DXYHb4oSjjC-J1Q0Xx3f-18" value="Text" style="edgeLabel;html=1;align=center;verticalAlign=middle;resizable=0;points=[];" vertex="1" connectable="0" parent="DXYHb4oSjjC-J1Q0Xx3f-11">
          <mxGeometry x="-0.6157" y="1" relative="1" as="geometry">
            <mxPoint as="offset" />
          </mxGeometry>
        </mxCell>
        <mxCell id="DXYHb4oSjjC-J1Q0Xx3f-19" value="执行线程的主体方法" style="edgeLabel;html=1;align=center;verticalAlign=middle;resizable=0;points=[];" vertex="1" connectable="0" parent="DXYHb4oSjjC-J1Q0Xx3f-11">
          <mxGeometry x="0.4118" y="1" relative="1" as="geometry">
            <mxPoint as="offset" />
          </mxGeometry>
        </mxCell>
        <mxCell id="DXYHb4oSjjC-J1Q0Xx3f-7" value="pthread_create()&amp;nbsp;&lt;br&gt;创建线程" style="whiteSpace=wrap;html=1;" vertex="1" parent="1">
          <mxGeometry x="470" y="240" width="120" height="60" as="geometry" />
        </mxCell>
        <mxCell id="DXYHb4oSjjC-J1Q0Xx3f-17" style="edgeStyle=orthogonalEdgeStyle;rounded=0;orthogonalLoop=1;jettySize=auto;html=1;exitX=0;exitY=0.5;exitDx=0;exitDy=0;entryX=0.5;entryY=1;entryDx=0;entryDy=0;" edge="1" parent="1" source="DXYHb4oSjjC-J1Q0Xx3f-13" target="DXYHb4oSjjC-J1Q0Xx3f-15">
          <mxGeometry relative="1" as="geometry" />
        </mxCell>
        <mxCell id="DXYHb4oSjjC-J1Q0Xx3f-20" value="通过JNI调用Java中的run方法，在线程中执行" style="edgeLabel;html=1;align=center;verticalAlign=middle;resizable=0;points=[];" vertex="1" connectable="0" parent="DXYHb4oSjjC-J1Q0Xx3f-17">
          <mxGeometry x="-0.0377" y="2" relative="1" as="geometry">
            <mxPoint as="offset" />
          </mxGeometry>
        </mxCell>
        <mxCell id="DXYHb4oSjjC-J1Q0Xx3f-13" value="JNI" style="whiteSpace=wrap;html=1;rounded=0;" vertex="1" parent="1">
          <mxGeometry x="130" y="500" width="120" height="60" as="geometry" />
        </mxCell>
        <mxCell id="DXYHb4oSjjC-J1Q0Xx3f-15" value="Thread.run" style="whiteSpace=wrap;html=1;rounded=0;" vertex="1" parent="1">
          <mxGeometry x="-70" y="80" width="120" height="60" as="geometry" />
        </mxCell>
      </root>
    </mxGraphModel>
  </diagram>
</mxfile>
